<svg id="Livello_1" data-name="Livello 1" xmlns="http://www.w3.org/2000/svg" width="12" height="12" viewBox="0 0 12 12"><defs><style>.cls-1{fill:#276fff;}.cls-2{fill:#fff;}</style></defs><title>tsd-class</title><circle class="cls-1" cx="6" cy="6" r="6"/><path class="cls-2" d="M2.82,5.94a3.8,3.8,0,0,1,.23-1.28,3.48,3.48,0,0,1,.69-1.14,3.61,3.61,0,0,1,1.1-.81A3.35,3.35,0,0,1,6.32,2.4,3.17,3.17,0,0,1,8,2.83,2.74,2.74,0,0,1,9.08,4L8,4.68a1.89,1.89,0,0,0-.34-.51,1.85,1.85,0,0,0-.43-.32,2,2,0,0,0-.48-.18,2.81,2.81,0,0,0-.49,0,1.81,1.81,0,0,0-.9.21,2,2,0,0,0-.65.54,2.52,2.52,0,0,0-.38.77A2.72,2.72,0,0,0,4.22,6a2.85,2.85,0,0,0,.15.91,2.38,2.38,0,0,0,.43.76,2,2,0,0,0,.66.53,1.8,1.8,0,0,0,.84.2,2.2,2.2,0,0,0,.5-.06,1.91,1.91,0,0,0,.5-.19,2,2,0,0,0,.43-.34,1.54,1.54,0,0,0,.32-.49L9.18,8a2.15,2.15,0,0,1-.49.71A3.06,3.06,0,0,1,8,9.17a3.4,3.4,0,0,1-.84.32,3.85,3.85,0,0,1-.88.11,3.06,3.06,0,0,1-1.39-.32,3.42,3.42,0,0,1-1.08-.84,3.7,3.7,0,0,1-.72-1.17A3.82,3.82,0,0,1,2.82,5.94Z"/></svg>