<svg id="Livello_1" data-name="Livello 1" xmlns="http://www.w3.org/2000/svg" width="12" height="12" viewBox="0 0 12 12"><defs><style>.cls-1{fill:#276fff;}.cls-2{fill:#fff;}</style></defs><title>tsd-enumeration-property</title><circle class="cls-1" cx="6" cy="6" r="6"/><circle class="cls-1" cx="2.54" cy="1.58" r="1.3"/><circle class="cls-2" cx="2.54" cy="1.58" r="0.69"/><circle class="cls-2" cx="2.54" cy="3.73" r="0.69"/><circle class="cls-2" cx="2.54" cy="5.87" r="0.69"/><path class="cls-2" d="M4.3,9.83V2.73h3a2,2,0,0,1,.91.21,2.52,2.52,0,0,1,.71.54,2.37,2.37,0,0,1,.47.76,2.15,2.15,0,0,1,.17.85A2.44,2.44,0,0,1,9.41,6,2.21,2.21,0,0,1,9,6.72a2.06,2.06,0,0,1-.7.53,1.92,1.92,0,0,1-.9.2H5.68V9.83ZM5.68,6.24h1.6a.78.78,0,0,0,.64-.31,1.26,1.26,0,0,0,.25-.84,1.21,1.21,0,0,0-.08-.48,1.12,1.12,0,0,0-.21-.37A.81.81,0,0,0,7.58,4a.94.94,0,0,0-.36-.08H5.68Z"/></svg>