<svg id="Livello_1" data-name="Livello 1" xmlns="http://www.w3.org/2000/svg" width="12" height="12" viewBox="0 0 12 12"><defs><style>.cls-1{fill:#276fff;}.cls-2{fill:#fff;}</style></defs><title>tsd-object-literal</title><circle class="cls-1" cx="6" cy="6" r="6"/><path class="cls-2" d="M3.75,3.21v2a.82.82,0,0,1-.09.38,1,1,0,0,1-.26.31,1.07,1.07,0,0,1,.25.32.82.82,0,0,1,.1.37V8.78H4.3V9.86H2.78a.26.26,0,0,1-.15-.07c-.06,0-.08-.12-.08-.24V7.07a.67.67,0,0,0-.15-.44.65.65,0,0,0-.35-.23V5.46a.35.35,0,0,0,.19-.06.49.49,0,0,0,.16-.16A1,1,0,0,0,2.51,5a.78.78,0,0,0,0-.22V2.44c0-.12,0-.2.08-.24a.29.29,0,0,1,.15-.06H4.3V3.21Z"/><path class="cls-2" d="M7.69,3.21V2.14H9.23a.24.24,0,0,1,.13.06c.07,0,.09.12.09.24V4.81a.78.78,0,0,0,0,.22,1,1,0,0,0,.11.21.46.46,0,0,0,.15.16.36.36,0,0,0,.2.06V6.4a.65.65,0,0,0-.35.23.67.67,0,0,0-.15.44V9.55c0,.12,0,.2-.08.24a.3.3,0,0,1-.14.07H7.69V8.78h.55V6.63a.82.82,0,0,1,.1-.37,1.11,1.11,0,0,1,.26-.32,1,1,0,0,1-.26-.31.83.83,0,0,1-.1-.38v-2Z"/></svg>